# xmcd
# 
# Track frame offsets:
#     150
#     36975
#     83232
#     101295
#     140770
#     162244
#     187407
#     210882
#     229860
#     263975
#     295217
# 
# Disc length: 4299
# 
# Revision: 0
# Processed by: cddbd v1.5.2PL0 Copyright (c) Steve Scherf et al.
# Submitted via: BonkEnc v1.0.8
# 
DISCID=9f10c90b
DTITLE=Jean-Philippe Collard - Orchestre Nationale de France - Lorin Maazel - Ravel: Les deux concertos pour piano
DYEAR=2006
DGENRE=Classical
TTITLE0=Ravel, Piano Concerto in G Major, I. Allegramente
TTITLE1=Ravel, Piano Concerto in G Major, II. Adagio Assai
TTITLE2=Ravel, Piano Concerto in G Major, III. Presto
TTITLE3=Ravel, Piano Concerto for the Left Hand in D Major, I. Lento
TTITLE4=Ravel, Piano Concerto for the Left Hand in D Major, II. Allegro
TTITLE5=Ravel, Piano Concerto for the Left Hand in D Major, III. Lento
TTITLE6=Ravel, Miroirs, I. Noctuelles
TTITLE7=Ravel, Miroirs, II. Oiseaux tristes
TTITLE8=Ravel, Miroirs, III. Une barque sur l'océan
TTITLE9=Ravel, Miroirs, IV. Alborada del gracioso
TTITLE10=Ravel, Miroirs, V. La vallée des cloches
EXTD=Recordings: 1979 (1-6), 1978 (7-11)
EXTT0=
EXTT1=
EXTT2=
EXTT3=
EXTT4=
EXTT5=
EXTT6=
EXTT7=
EXTT8=
EXTT9=
EXTT10=
PLAYORDER=
